name rise38.3101peak57.3503fall81.6963.mot
datacolumns 19
datarows 24
range 19.17659600000000 19.21493300000000
endheader
time	ground_force1_vx	ground_force1_vy	ground_force1_vz	ground_force1_px	ground_force1_py	ground_force1_pz	ground_force2_vx	ground_force2_vy	ground_force2_vz	ground_force2_px	ground_force2_py	ground_force2_pz	ground_torque1_x	ground_torque1_y	ground_torque1_z	ground_torque2_x	ground_torque2_y	ground_torque2_z	
19.17659600000000	78.72222400000000	743.09617300000002	51.74008500000000	0.35894300000000	0.00000000000000	0.08081800000000	-3.62273200000000	22.36946700000000	2.37501200000000	0.00000000000000	0.00000000000000	0.00000000000000	0.00000000000000	24.22397300000000	0.00000000000000	0.00000000000000	-0.26285100000000	0.00000000000000	
19.17826900000000	78.49325100000000	748.05599099999995	52.39198400000000	0.35825400000000	0.00000000000000	0.08086100000000	-2.50571100000000	16.47645200000000	1.83323500000000	0.00000000000000	0.00000000000000	0.00000000000000	0.00000000000000	24.62287100000000	0.00000000000000	0.00000000000000	-0.16062100000000	0.00000000000000	
19.17993400000000	78.24539799999999	752.85951399999999	53.03200600000000	0.35759500000000	0.00000000000000	0.08090100000000	-1.56692800000000	11.30545600000000	1.33441200000000	0.00000000000000	0.00000000000000	0.00000000000000	0.00000000000000	25.01708900000000	0.00000000000000	0.00000000000000	-0.07941900000000	0.00000000000000	
19.18160000000000	77.97931600000000	757.50202700000000	53.65949200000000	0.35696500000000	0.00000000000000	0.08093700000000	-0.80697500000000	6.91786800000000	0.89107600000000	0.00000000000000	0.00000000000000	0.00000000000000	0.00000000000000	25.40625000000000	0.00000000000000	0.00000000000000	-0.01800500000000	0.00000000000000	
19.18326900000000	77.69563300000000	761.97897100000000	54.27374000000000	0.35636200000000	0.00000000000000	0.08097100000000	-0.22017900000000	3.34149800000000	0.51229000000000	0.00000000000000	0.00000000000000	0.00000000000000	0.00000000000000	25.78993900000000	0.00000000000000	0.00000000000000	0.02540400000000	0.00000000000000	
19.18493300000000	77.39495700000001	766.28597300000001	54.87401000000000	0.35578700000000	0.00000000000000	0.08100200000000	0.00000000000000	0.00000000000000	0.00000000000000	0.00000000000000	0.00000000000000	0.00000000000000	0.00000000000000	26.16770400000000	0.00000000000000	0.00000000000000	0.00000000000000	0.00000000000000	
19.18659600000000	77.07787500000001	770.41885400000001	55.45953100000000	0.35523700000000	0.00000000000000	0.08103000000000	0.00000000000000	0.00000000000000	0.00000000000000	0.00000000000000	0.00000000000000	0.00000000000000	0.00000000000000	26.53906100000000	0.00000000000000	0.00000000000000	0.00000000000000	0.00000000000000	
19.18826400000000	76.74495000000000	774.37365299999999	56.02950700000000	0.35471300000000	0.00000000000000	0.08105500000000	0.00000000000000	0.00000000000000	0.00000000000000	0.00000000000000	0.00000000000000	0.00000000000000	0.00000000000000	26.90349900000000	0.00000000000000	0.00000000000000	0.00000000000000	0.00000000000000	
19.18993600000000	76.39672800000000	778.14664100000005	56.58312200000000	0.35421300000000	0.00000000000000	0.08107600000000	0.00000000000000	0.00000000000000	0.00000000000000	0.00000000000000	0.00000000000000	0.00000000000000	0.00000000000000	27.26048200000000	0.00000000000000	0.00000000000000	0.00000000000000	0.00000000000000	
19.19160000000000	76.03373000000001	781.73433799999998	57.11954700000000	0.35373500000000	0.00000000000000	0.08109500000000	0.00000000000000	0.00000000000000	0.00000000000000	0.00000000000000	0.00000000000000	0.00000000000000	0.00000000000000	27.60945400000000	0.00000000000000	0.00000000000000	0.00000000000000	0.00000000000000	
19.19326700000000	75.65646000000000	785.13352799999996	57.63794800000000	0.35327900000000	0.00000000000000	0.08111100000000	0.00000000000000	0.00000000000000	0.00000000000000	0.00000000000000	0.00000000000000	0.00000000000000	0.00000000000000	27.94984300000000	0.00000000000000	0.00000000000000	0.00000000000000	0.00000000000000	
19.19492900000000	75.26540100000000	788.34127599999999	58.13749300000000	0.35284300000000	0.00000000000000	0.08112400000000	0.00000000000000	0.00000000000000	0.00000000000000	0.00000000000000	0.00000000000000	0.00000000000000	0.00000000000000	28.28106700000000	0.00000000000000	0.00000000000000	0.00000000000000	0.00000000000000	
19.19659900000000	74.86101700000000	791.35493899999994	58.61735500000000	0.35242600000000	0.00000000000000	0.08113300000000	0.00000000000000	0.00000000000000	0.00000000000000	0.00000000000000	0.00000000000000	0.00000000000000	0.00000000000000	28.60253700000000	0.00000000000000	0.00000000000000	0.00000000000000	0.00000000000000	
19.19827300000000	74.44375300000000	794.17218000000003	59.07672300000000	0.35202500000000	0.00000000000000	0.08114000000000	0.00000000000000	0.00000000000000	0.00000000000000	0.00000000000000	0.00000000000000	0.00000000000000	0.00000000000000	28.91366000000000	0.00000000000000	0.00000000000000	0.00000000000000	0.00000000000000	
19.19992700000000	74.01403700000000	796.79098099999999	59.51480500000000	0.35164000000000	0.00000000000000	0.08114300000000	0.00000000000000	0.00000000000000	0.00000000000000	0.00000000000000	0.00000000000000	0.00000000000000	0.00000000000000	29.21384800000000	0.00000000000000	0.00000000000000	0.00000000000000	0.00000000000000	
19.20160000000000	73.57228100000000	799.20965200000001	59.93083700000000	0.35126800000000	0.00000000000000	0.08114400000000	0.00000000000000	0.00000000000000	0.00000000000000	0.00000000000000	0.00000000000000	0.00000000000000	0.00000000000000	29.50251700000000	0.00000000000000	0.00000000000000	0.00000000000000	0.00000000000000	
19.20326600000000	73.11888000000000	801.42684199999997	60.32408800000000	0.35090900000000	0.00000000000000	0.08114100000000	0.00000000000000	0.00000000000000	0.00000000000000	0.00000000000000	0.00000000000000	0.00000000000000	0.00000000000000	29.77909500000000	0.00000000000000	0.00000000000000	0.00000000000000	0.00000000000000	
19.20492800000000	72.65421600000001	803.44154800000001	60.69386400000000	0.35055900000000	0.00000000000000	0.08113600000000	0.00000000000000	0.00000000000000	0.00000000000000	0.00000000000000	0.00000000000000	0.00000000000000	0.00000000000000	30.04302500000000	0.00000000000000	0.00000000000000	0.00000000000000	0.00000000000000	
19.20660000000000	72.17865600000000	805.25312099999996	61.03951600000000	0.35021800000000	0.00000000000000	0.08112800000000	0.00000000000000	0.00000000000000	0.00000000000000	0.00000000000000	0.00000000000000	0.00000000000000	0.00000000000000	30.29376600000000	0.00000000000000	0.00000000000000	0.00000000000000	0.00000000000000	
19.20826600000000	71.69255400000000	806.86127499999998	61.36044700000000	0.34988300000000	0.00000000000000	0.08111700000000	0.00000000000000	0.00000000000000	0.00000000000000	0.00000000000000	0.00000000000000	0.00000000000000	0.00000000000000	30.53080400000000	0.00000000000000	0.00000000000000	0.00000000000000	0.00000000000000	
19.20993100000000	71.19625600000001	808.26608799999997	61.65611000000000	0.34955200000000	0.00000000000000	0.08110300000000	0.00000000000000	0.00000000000000	0.00000000000000	0.00000000000000	0.00000000000000	0.00000000000000	0.00000000000000	30.75364900000000	0.00000000000000	0.00000000000000	0.00000000000000	0.00000000000000	
19.21159600000000	70.69009200000001	809.46801000000005	61.92601900000000	0.34922400000000	0.00000000000000	0.08108600000000	0.00000000000000	0.00000000000000	0.00000000000000	0.00000000000000	0.00000000000000	0.00000000000000	0.00000000000000	30.96184000000000	0.00000000000000	0.00000000000000	0.00000000000000	0.00000000000000	
19.21326800000000	70.17438799999999	810.46786099999997	62.16974900000000	0.34889700000000	0.00000000000000	0.08106700000000	0.00000000000000	0.00000000000000	0.00000000000000	0.00000000000000	0.00000000000000	0.00000000000000	0.00000000000000	31.15495100000000	0.00000000000000	0.00000000000000	0.00000000000000	0.00000000000000	
19.21493300000000	69.64945899999999	811.26683800000001	62.38694400000000	0.34856700000000	0.00000000000000	0.08104500000000	0.00000000000000	0.00000000000000	0.00000000000000	0.00000000000000	0.00000000000000	0.00000000000000	0.00000000000000	31.33259000000000	0.00000000000000	0.00000000000000	0.00000000000000	0.00000000000000	
